<?xml version="1.0" standalone="no"?>
<!DOCTYPE svg PUBLIC "-//W3C//DTD SVG 20010904//EN"
 "http://www.w3.org/TR/2001/REC-SVG-20010904/DTD/svg10.dtd">
<svg version="1.0" xmlns="http://www.w3.org/2000/svg"
 width="752.000000pt" height="1280.000000pt" viewBox="0 0 752.000000 1280.000000"
 preserveAspectRatio="xMidYMid meet">
<metadata>
Created by potrace 1.15, written by Peter Selinger 2001-2017
</metadata>
<g transform="translate(0.000000,1280.000000) scale(0.100000,-0.100000)"
fill="#000000" stroke="none">
<path d="M3530 12794 c-19 -2 -84 -9 -145 -14 -820 -80 -1641 -461 -2239
-1040 -622 -603 -1005 -1381 -1123 -2285 -21 -166 -24 -628 -5 -790 63 -517
186 -924 411 -1360 503 -976 1393 -1668 2481 -1929 144 -34 393 -76 454 -76
l26 0 0 -935 0 -935 -735 2 -735 3 0 -367 0 -368 735 0 735 0 0 -1165 0 -1165
370 0 370 0 0 1165 0 1165 735 0 735 0 0 368 0 367 -735 -3 -735 -2 0 935 0
935 26 0 c61 0 310 42 454 76 1088 261 1978 953 2481 1929 225 436 348 843
411 1360 19 162 16 624 -5 790 -63 480 -182 873 -387 1280 -571 1133 -1646
1881 -2933 2041 -114 14 -568 27 -647 18z m545 -744 c520 -58 1019 -249 1450
-554 600 -424 1029 -1082 1195 -1833 180 -818 -8 -1697 -514 -2407 -95 -132
-248 -307 -365 -416 -759 -710 -1817 -989 -2802 -740 -871 220 -1579 782
-1972 1566 -439 875 -445 1834 -17 2709 397 811 1115 1387 2000 1604 191 46
296 62 560 85 70 6 365 -3 465 -14z"/>
</g>
</svg>
