<?xml version="1.0" standalone="no"?>
<!DOCTYPE svg PUBLIC "-//W3C//DTD SVG 20010904//EN"
 "http://www.w3.org/TR/2001/REC-SVG-20010904/DTD/svg10.dtd">
<svg version="1.0" xmlns="http://www.w3.org/2000/svg"
 width="1271.000000pt" height="1280.000000pt" viewBox="0 0 1271.000000 1280.000000"
 preserveAspectRatio="xMidYMid meet">
<metadata>
Created by potrace 1.15, written by Peter Selinger 2001-2017
</metadata>
<g transform="translate(0.000000,1280.000000) scale(0.100000,-0.100000)"
fill="#000000" stroke="none">
<path d="M12100 12789 c-41 -4 -275 -29 -520 -53 -245 -25 -625 -64 -845 -86
-220 -22 -848 -86 -1395 -141 -547 -55 -1165 -117 -1373 -138 -207 -21 -379
-40 -381 -42 -5 -7 89 -917 96 -924 4 -4 123 5 265 19 142 14 771 78 1398 141
627 63 1250 126 1384 139 135 14 246 24 248 23 1 -2 -298 -307 -665 -679
-1941 -1967 -2437 -2468 -2445 -2468 -4 0 -61 40 -125 88 -612 463 -1329 774
-2097 912 -451 80 -986 91 -1440 30 -1065 -145 -2050 -630 -2790 -1374 -490
-493 -848 -1050 -1100 -1711 -242 -637 -348 -1333 -305 -1990 100 -1512 901
-2905 2137 -3718 183 -120 267 -170 448 -263 969 -502 2043 -666 3089 -474
782 144 1551 494 2161 984 309 248 565 509 801 816 544 709 876 1539 980 2450
21 189 30 629 15 815 -52 669 -217 1266 -509 1850 -127 255 -331 579 -502 799
l-93 118 159 161 c88 89 339 344 560 567 419 424 1949 1974 2233 2262 91 92
165 167 166 165 1 -1 -4 -63 -11 -137 -7 -74 -22 -238 -33 -365 -11 -126 -30
-332 -41 -457 -11 -126 -29 -330 -40 -455 -66 -741 -160 -1815 -162 -1853 l-3
-44 465 -42 c256 -22 466 -40 467 -40 1 1 25 260 53 576 28 316 59 674 70 795
11 121 33 375 50 565 16 190 35 392 40 450 5 58 23 260 40 450 17 190 34 392
40 450 5 58 24 260 40 450 17 190 42 468 55 618 19 202 25 338 25 522 l0 250
-267 -1 c-148 -1 -302 -5 -343 -10z m-6830 -4103 c653 -90 1215 -298 1725
-639 848 -567 1434 -1451 1640 -2472 57 -287 70 -422 70 -755 -1 -313 -11
-427 -60 -695 -182 -982 -754 -1888 -1547 -2448 -500 -353 -1057 -583 -1647
-682 -241 -40 -354 -49 -626 -49 -387 0 -674 39 -1046 144 -1554 440 -2643
1741 -2820 3370 -28 252 -16 663 27 940 163 1049 742 1994 1584 2586 592 416
1243 651 1990 718 106 9 600 -3 710 -18z"/>
</g>
</svg>
